<svg xmlns="http://www.w3.org/2000/svg" viewBox="0 0 574.544 516.309">
  <defs>
    <style>
      .cls-1 {
        fill: #828282;
        fill-rule: evenodd;
        opacity: 0.096;
      }
    </style>
  </defs>
  <path id="tshirt2" class="cls-1" d="M755.686,107.836c-4.185-2.08-31.261-14.64-59.918-27.9-27.5-12.736-55.927-25.9-59.967-27.928-5.514-2.758-28.578-6.593-65.884-12.585-16.872-2.708-32.816-5.265-39.885-6.819l-2.708-.6-2.256,1.6c-12.384,8.849-26.424,9.577-39.76,9.577L473.7,43.106l-12.434.075c-13.337,0-27.4-.727-39.785-9.577L419.225,32l-2.682.6c-7.07,1.529-23.014,4.111-39.886,6.819-37.3,5.992-60.342,9.827-65.885,12.585-4.036,2.031-32.515,15.217-60.067,27.978-28.629,13.262-55.654,25.772-59.816,27.852L186,110.292l1.8,5.164c7.4,21.334,42.995,102.91,44.524,106.394l1.63,3.735h4.086c9.928,0,50.39-2.382,52.095-2.482l1.328-.326c.025.025,1.4,1.479,1.1,7.771-.827,17.323-8.223,283.237-8.223,304.12v1.2L284.8,537c.251.652.451,1.153.6,1.6,1.78,4.938,4.061,6.167,8.9,7.12,5.315,1.053,169.372,2.582,178.594,2.582h.827c9.226,0,173.257-1.5,178.621-2.582,4.815-.978,7.1-2.181,8.876-7.12.151-.426.35-.953.6-1.6l.452-1.128-.048-1.2c0-20.783-7.4-286.747-8.22-304.12-.3-6.017.974-7.6.85-7.721l1.582.3c1.727.1,42.165,2.482,52.091,2.482h4.089l1.63-3.736c1.5-3.46,37.125-85.062,44.522-106.394l1.781-5.164ZM472.9,102.17c41.741,0,53.624-40.362,56.732-56.607.15-.1.3-.15.426-.251,2.382.476,5.365,1,8.674,1.579-3.134,16.045-16.521,63.376-65.032,63.376h-1.629c-24.242,0-42.668-11.406-54.752-33.92A106.8,106.8,0,0,1,407.07,47.017c3.46-.6,6.568-1.153,9.075-1.655,3.034,16.17,14.866,56.808,56.758,56.808Zm0-46.579,12.434.075c11.858,0,25.195-.652,38.006-6.669C519.383,65.769,507.4,96.755,472.9,96.755c-35.248,0-46.93-31.487-50.665-48.208,13.112,6.493,26.85,7.12,39.058,7.12Zm-181.3,154.8a13.27,13.27,0,0,0-2.783.3c-4.537.251-33.868,1.955-46.729,2.357-6.694-15.393-31.713-73.105-40.588-96.441,10.1-4.763,32.59-15.167,54.476-25.3,24.418-11.306,47.632-22.061,56.808-26.4,6.593,21.209,16.346,73.606-11.406,150.466-.3-.376-.527-.827-.853-1.178a12.147,12.147,0,0,0-8.924-3.811ZM473.706,535.823h-.827c-19.4,0-168.218-1.6-176.067-2.332.226-28.178,7.571-289.18,8.2-302.362a36.8,36.8,0,0,0-.351-7.045c31.663-82.777,20.858-139.44,13.864-161.652,9.024-2.507,39.334-7.4,60.117-10.73,7.9-1.279,15.568-2.507,22.312-3.635,3.46,17.449,18.075,68.44,71.122,68.44H473.7c53.173,0,67.74-51.242,71.148-68.568,6.919,1.153,14.866,2.432,23.089,3.76,20.557,3.309,50.49,8.122,59.84,10.655-7.019,22.186-17.9,79.067,14.014,162.275a40.85,40.85,0,0,0-.247,6.493c.624,13.212,7.946,274.111,8.193,302.337-11.33.777-156.855,2.357-176.038,2.357Zm230.815-322.8c-12.857-.376-42.192-2.081-46.727-2.356a13.27,13.27,0,0,0-2.781-.3,10.677,10.677,0,0,0-9.931,5.239C617.13,138.421,627.006,85.9,633.6,64.738,642.574,69,665.965,79.83,690.561,91.212c21.911,10.153,44.446,20.582,54.576,25.345-8.9,23.365-33.919,81.076-40.616,96.466Z" transform="translate(-186 -32)"/>
</svg>
