<svg xmlns="http://www.w3.org/2000/svg" width="1068" height="960" viewBox="0 0 1068 960">
  <path fill="#FFF" fill-rule="evenodd" d="M1244.96803,172.968406 C1237.18572,169.100512 1186.85657,145.754046 1133.5922,121.101023 C1082.47044,97.4274403 1029.626,72.9617161 1022.12213,69.1871134 C1011.86998,64.0609788 968.997337,56.9315846 899.650347,45.7938822 C868.28798,40.7609196 838.649475,36.0077118 825.508752,33.1184229 L820.475789,32 L816.281733,34.982461 C793.260713,51.432523 767.164179,52.7841743 742.37277,52.7841743 L720.796454,52.6443566 L697.682381,52.7841743 C672.890972,52.7841743 646.747912,51.4327616 623.726892,34.982461 L619.532836,32 L614.546519,33.1184229 C601.404603,35.9610661 571.767291,40.7609196 540.404924,45.7938822 C471.062706,56.9314653 428.236951,64.0608595 417.933145,69.1871134 C410.430347,72.9618354 357.491783,97.4739667 306.276962,121.194076 C253.059121,145.845905 202.822512,169.099558 195.087201,172.967213 L186,177.534077 L189.355269,187.133903 C203.102028,226.791091 269.275716,378.428953 272.118598,384.906858 L275.147704,391.850385 L282.743675,391.850385 C301.197951,391.850385 376.412038,387.423339 379.580605,387.236876 L382.050441,386.631078 C382.096967,386.677605 384.660094,389.380549 384.100942,401.076926 C382.563066,433.277962 368.816426,927.576735 368.816426,966.396447 L368.816426,968.633293 L369.655213,970.730321 C370.121193,971.941916 370.494001,972.873995 370.773636,973.712782 C374.082259,982.893155 378.322961,985.176647 387.316751,986.947751 C397.196093,988.90495 702.157266,991.747593 719.300452,991.747593 L720.838328,991.747593 C737.987479,991.747593 1042.8964,988.951476 1052.86975,986.947751 C1061.81713,985.130359 1066.05819,982.893513 1069.36634,973.712782 C1069.64597,972.920521 1070.01878,971.941916 1070.48476,970.730321 L1071.32355,968.633293 L1071.23037,966.396447 C1071.23037,927.764033 1057.48362,433.371014 1055.94586,401.076926 C1055.38659,389.892698 1057.76325,386.956763 1057.53026,386.724131 L1060.46608,387.283283 C1063.68153,387.469746 1138.84873,391.896792 1157.30301,391.896792 L1164.89898,391.896792 L1167.92808,384.953265 C1170.7242,378.522363 1236.94462,226.835112 1250.69138,187.18031 L1254,177.580484 L1244.96803,172.968406 Z M719.315245,162.43662 C796.905758,162.43662 818.995057,87.408638 824.77268,57.2118167 C825.052197,57.0254725 825.331832,56.9321811 825.564822,56.745837 C829.991868,57.63127 835.537456,58.6098751 841.689199,59.6816523 C835.864095,89.5062625 810.979395,177.488863 720.804089,177.488863 L717.774983,177.488863 C672.712383,177.488863 638.460607,156.285951 615.999097,114.437251 C604.67505,93.3273915 599.269877,71.9837075 596.938785,59.9142842 C603.369687,58.7958614 609.147787,57.7706106 613.808778,56.8386511 C619.447538,86.8958933 641.443068,162.436859 719.313933,162.436859 L719.315245,162.43662 Z M719.315245,75.852198 L742.429318,75.9920158 C764.472091,75.9920158 789.2635,74.7804208 813.076661,63.5957148 C805.713681,94.7719763 783.438157,152.370457 719.315245,152.370457 C653.794155,152.370457 632.07826,93.8402555 625.135091,62.7570468 C649.507762,74.82647 675.044786,75.9920158 697.738929,75.9920158 L719.315245,75.852198 Z M382.29715,363.611967 C380.200122,363.611967 378.429256,363.891602 377.124489,364.171238 C368.689731,364.637218 314.167123,367.806142 290.260908,368.551757 C277.818081,339.939219 231.310729,232.658904 214.81414,189.281991 C233.594101,180.42778 275.395129,161.08819 316.078284,142.261703 C361.467761,121.244897 404.620393,101.252864 421.676491,93.1906755 C433.93202,132.615231 452.060611,230.014057 400.47358,372.88587 C399.914308,372.186781 399.494855,371.347994 398.889177,370.69567 C394.508657,366.08216 388.636908,363.612325 382.299536,363.612325 L382.29715,363.611967 Z M720.806475,968.53857 L719.268599,968.53857 C683.199909,968.53857 406.575456,965.556109 391.985257,964.204697 C392.404591,911.825523 406.058894,426.657852 407.223247,402.153953 C407.456237,397.260808 407.129955,393.020226 406.570804,389.058563 C465.427882,235.187434 445.342797,129.858841 432.341653,88.5696504 C449.117399,83.9096147 505.458474,74.8228911 544.090888,68.6241441 C558.770561,66.2474806 573.030304,63.9639891 585.566184,61.8669611 C591.997086,94.3018212 619.165397,189.086818 717.772716,189.086818 L720.801823,189.086818 C819.642967,189.086818 846.721327,93.8341713 853.056074,61.6283642 C865.917639,63.7720379 880.690365,66.1487015 895.976074,68.6185371 C934.188558,74.7698033 989.830543,83.7169477 1007.21233,88.4244642 C994.163463,129.665935 973.938798,235.400143 1033.26233,390.070572 C1032.84288,393.752002 1032.60989,397.666542 1032.79635,402.139995 C1033.9613,426.698772 1047.56908,911.675565 1048.03434,964.143019 C1026.97101,965.587604 756.457025,968.523539 720.798721,968.523539 L720.806475,968.53857 Z M1149.86332,368.503203 C1125.9571,367.804233 1071.43414,364.635309 1062.99974,364.122684 C1061.69485,363.843048 1059.9241,363.563532 1057.82708,363.563532 C1051.48935,363.563532 1045.61807,366.080013 1041.28396,370.600231 C1040.53835,371.392373 1039.97907,372.417623 1039.37328,373.303056 C987.412841,229.822822 1005.77406,132.188978 1018.02959,92.856282 C1034.71229,100.778414 1078.1918,120.910503 1123.90696,142.066889 C1164.63664,160.939902 1206.53067,180.325899 1225.35716,189.180229 C1208.81405,232.612019 1162.30555,339.889949 1149.86391,368.497715 L1149.86332,368.503203 Z" opacity=".096" transform="translate(-186 -32)"/>
</svg>
