<svg xmlns="http://www.w3.org/2000/svg" viewBox="0 0 1068 959.748">
  <defs>
    <style>
      .cls-1 {
        fill: #f55;
        fill-rule: evenodd;
        opacity: 0.096;
      }
    </style>
  </defs>
  <path id="tshirt3" class="cls-1" d="M1244.97,172.968c-7.78-3.867-58.11-27.214-111.38-51.867-51.12-23.674-103.96-48.139-111.47-51.914C1011.87,64.061,969,56.932,899.65,45.794c-31.362-5.033-61-9.786-74.141-12.675L820.476,32l-4.194,2.982c-23.021,16.45-49.118,17.8-73.909,17.8l-21.577-.14-23.114.14c-24.791,0-50.934-1.351-73.955-17.8L619.533,32l-4.986,1.118c-13.142,2.843-42.78,7.642-74.142,12.675C471.063,56.931,428.237,64.061,417.933,69.187c-7.5,3.775-60.441,28.287-111.656,52.007-53.218,24.652-103.454,47.906-111.19,51.773L186,177.534l3.355,9.6c13.747,39.657,79.921,191.295,82.764,197.773l3.029,6.943h7.6c18.454,0,93.668-4.427,96.837-4.613l2.469-.606c.047.047,2.61,2.75,2.051,14.446-1.538,32.2-15.285,526.5-15.285,565.319v2.237l.839,2.1c.466,1.212.839,2.144,1.119,2.983,3.308,9.18,7.549,11.464,16.543,13.235,9.879,1.957,314.84,4.8,331.983,4.8h1.538c17.149,0,322.062-2.8,332.032-4.8,8.95-1.818,13.19-4.055,16.5-13.235.28-.792.65-1.771,1.11-2.983l.84-2.1-.09-2.237c0-38.632-13.75-533.025-15.28-565.319-.56-11.184,1.81-14.12,1.58-14.353l2.94.559c3.21.187,78.38,4.614,96.83,4.614h7.6l3.03-6.944c2.79-6.431,69.01-158.118,82.76-197.773l3.31-9.6ZM719.315,162.437c77.591,0,99.68-75.028,105.458-105.225.279-.186.559-.28.792-.466,4.427.886,9.972,1.864,16.124,2.936-5.825,29.825-30.71,117.807-120.885,117.807h-3.029c-45.063,0-79.314-21.2-101.776-63.052-11.324-21.11-16.729-42.453-19.06-54.523,6.431-1.118,12.209-2.144,16.87-3.076,5.639,30.057,27.634,105.6,105.505,105.6Zm0-86.585,23.114.14c22.043,0,46.834-1.212,70.648-12.4-7.363,31.176-29.639,88.774-93.762,88.774-65.521,0-87.237-58.53-94.18-89.613,24.373,12.069,49.91,13.235,72.6,13.235ZM382.3,363.612a24.67,24.67,0,0,0-5.173.559c-8.434.466-62.957,3.635-86.863,4.381-12.443-28.613-58.95-135.893-75.447-179.27,18.78-8.854,60.581-28.194,101.264-47.02,45.39-21.017,88.542-41.009,105.6-49.071,12.256,39.424,30.385,136.823-21.2,279.7-.56-.7-.979-1.538-1.585-2.19a22.58,22.58,0,0,0-16.589-7.084ZM720.806,968.539h-1.537c-36.069,0-312.694-2.983-327.284-4.334.42-52.379,14.074-537.547,15.238-562.051a68.411,68.411,0,0,0-.652-13.1c58.857-153.872,38.772-259.2,25.771-300.489,16.775-4.66,73.116-13.747,111.749-19.946,14.68-2.377,28.939-4.66,41.475-6.757,6.431,32.435,33.6,127.22,132.207,127.22H720.8c98.841,0,125.919-95.253,132.254-127.459,12.862,2.144,27.634,4.52,42.92,6.99,38.213,6.151,93.855,15.1,111.234,19.806-13.047,41.242-33.271,146.975,26.05,301.647a75.943,75.943,0,0,0-.46,12.069c1.16,24.559,14.77,509.536,15.23,562-21.06,1.445-291.573,4.381-327.231,4.381ZM1149.86,368.5c-23.9-.7-78.43-3.868-86.86-4.38a24.667,24.667,0,0,0-5.17-.559,19.848,19.848,0,0,0-18.46,9.739c-51.957-143.48-33.6-241.114-21.34-280.447,16.68,7.922,60.16,28.054,105.88,49.211,40.73,18.873,82.62,38.259,101.45,47.113-16.55,43.432-63.05,150.71-75.5,179.318Z" transform="translate(-186 -32)"/>
</svg>
